<?xml version="1.0" encoding="UTF-8"?>
<svg version="1.1" xmlns="http://www.w3.org/2000/svg" width="803" height="803">
<path d="M0 0 C3.6348303 0.00314914 7.26883448 -0.02036708 10.90356445 -0.0456543 C32.28760391 -0.103546 53.56635905 1.6104012 74.60083008 5.56567383 C75.7392334 5.77619385 76.87763672 5.98671387 78.05053711 6.20361328 C127.90463354 15.70989392 175.70588336 34.09942762 218.60083008 61.31567383 C219.67848633 61.99887695 220.75614258 62.68208008 221.86645508 63.38598633 C224.81649154 65.31237626 227.71421906 67.29541013 230.60083008 69.31567383 C231.25196777 69.76990723 231.90310547 70.22414063 232.57397461 70.69213867 C247.47441905 81.13088717 261.59372036 92.38272514 274.89770508 104.79614258 C277.49510372 107.21712831 280.13346264 109.58305381 282.78833008 111.94067383 C289.5346265 118.00585379 295.90143938 124.35067414 301.80395508 131.24145508 C303.77545438 133.51725101 305.81217403 135.7249005 307.85083008 137.94067383 C357.34727235 192.95530055 389.45229533 264.3756856 401.35083008 337.06567383 C401.5495874 338.27118896 401.74834473 339.4767041 401.953125 340.71875 C404.92172421 359.70989583 405.9511222 378.4991262 405.91650391 397.71484375 C405.91335477 401.34967405 405.93687099 404.98367823 405.9621582 408.6184082 C406.0200499 430.00244766 404.30610271 451.2812028 400.35083008 472.31567383 C400.14031006 473.45407715 399.92979004 474.59248047 399.71289062 475.76538086 C390.20660999 525.61947729 371.81707629 573.42072711 344.60083008 616.31567383 C343.91762695 617.39333008 343.23442383 618.47098633 342.53051758 619.58129883 C340.60412765 622.53133529 338.62109378 625.42906281 336.60083008 628.31567383 C336.14659668 628.96681152 335.69236328 629.61794922 335.22436523 630.28881836 C324.78561673 645.1892628 313.53377876 659.30856411 301.12036133 672.61254883 C298.6993756 675.20994747 296.33345009 677.84830639 293.97583008 680.50317383 C287.91065012 687.24947025 281.56582977 693.61628313 274.67504883 699.51879883 C272.3992529 701.49029813 270.19160341 703.52701778 267.97583008 705.56567383 C212.96770863 755.05626334 141.58190435 787.12475399 68.91333008 799.06567383 C67.71619385 799.26443115 66.51905762 799.46318848 65.28564453 799.66796875 C45.07120183 802.83627878 24.97925981 803.69224647 4.53833008 803.62817383 C3.32849457 803.62635101 2.11865906 803.6245282 0.87216187 803.62265015 C-17.07412719 803.57716324 -34.64442677 803.12496863 -52.39916992 800.31567383 C-53.53064453 800.14406738 -54.66211914 799.97246094 -55.82788086 799.7956543 C-134.17777176 787.67600709 -208.55999883 753.1188241 -266.66088867 698.87036133 C-269.26938917 696.43675316 -271.91907856 694.05913436 -274.58666992 691.69067383 C-281.33296635 685.62549387 -287.69977922 679.28067352 -293.60229492 672.38989258 C-295.57379422 670.11409665 -297.61051387 667.90644716 -299.64916992 665.69067383 C-349.1456122 610.67604711 -381.25063518 539.25566206 -393.14916992 466.56567383 C-393.44730591 464.75740112 -393.44730591 464.75740112 -393.75146484 462.91259766 C-396.72006405 443.92145183 -397.74946204 425.13222145 -397.71484375 405.91650391 C-397.71169461 402.28167361 -397.73521083 398.64766943 -397.76049805 395.01293945 C-397.81838975 373.62889999 -396.10444255 352.35014485 -392.14916992 331.31567383 C-391.9386499 330.17727051 -391.72812988 329.03886719 -391.51123047 327.8659668 C-377.54973495 254.64724216 -343.94024842 185.66111878 -292.95385742 131.05395508 C-290.52024925 128.44545458 -288.14263045 125.79576519 -285.77416992 123.12817383 C-279.70898996 116.3818774 -273.36416961 110.01506453 -266.47338867 104.11254883 C-264.19759274 102.14104953 -261.98994325 100.10432988 -259.77416992 98.06567383 C-204.25885986 48.11876873 -133.19768791 17.04702158 -60.08666992 4.56567383 C-58.93263672 4.3669165 -57.77860352 4.16815918 -56.58959961 3.96337891 C-37.75554576 0.89066229 -19.07003353 -0.03435584 0 0 Z " fill="#006BAC" transform="translate(397.399169921875,-0.315673828125)"/>
<path d="M0 0 C1.67919517 -0.00543731 3.35838556 -0.01256888 5.03756714 -0.02124023 C9.54806963 -0.03928705 14.05820117 -0.03248385 18.56870914 -0.01972389 C23.3212923 -0.00949676 28.07384667 -0.01901638 32.82643127 -0.02526855 C40.80410378 -0.03251769 48.7816275 -0.02303022 56.75927734 -0.00390625 C65.9400121 0.0178497 75.12039123 0.0108093 84.30111736 -0.01121187 C92.22778535 -0.02945322 100.15434724 -0.03188157 108.08102947 -0.0214572 C112.79582824 -0.01526901 117.51046072 -0.01425586 122.22524834 -0.02760315 C126.66197324 -0.03928896 131.09824665 -0.03090775 135.53492355 -0.00802612 C137.14840895 -0.00280581 138.76193338 -0.00413569 140.37540245 -0.01307678 C158.91063942 -0.10619897 177.61455502 3.05052631 191.54516602 16.32617188 C203.96852304 29.75488727 208.66074602 45.82647862 208.88500977 63.76757812 C208.91401367 64.55648437 208.94301758 65.34539062 208.97290039 66.15820312 C208.9812793 66.92132813 208.9896582 67.68445313 208.99829102 68.47070312 C209.02016479 69.49405762 209.02016479 69.49405762 209.04248047 70.53808594 C208.28170839 73.74241842 207.33779258 74.66991256 204.57250977 76.51757812 C200.90620432 77.11132213 197.27546395 77.05364541 193.56860352 77.01367188 C192.49377213 77.01512711 191.41894073 77.01658234 190.3115387 77.01808167 C188.04116096 77.0164227 185.77077197 77.00486184 183.50048828 76.98413086 C180.01945422 76.95515674 176.53994083 76.9635265 173.05883789 76.9765625 C170.85375234 76.97032578 168.64867161 76.96193537 166.44360352 76.95117188 C165.3998204 76.95410751 164.35603729 76.95704315 163.28062439 76.96006775 C162.3127449 76.94738358 161.34486542 76.9346994 160.34765625 76.92163086 C159.49590317 76.91622787 158.64415009 76.91082489 157.7665863 76.90525818 C155.08973289 76.43227437 154.1954752 75.66364561 152.57250977 73.51757812 C152.23657227 71.24804687 152.23657227 71.24804687 152.19750977 68.70507812 C151.8037296 63.31028987 150.56720266 61.14911712 146.57250977 57.51757812 C142.73043474 55.59808679 139.58617243 55.26323495 135.31703186 55.25015259 C134.05670639 55.24162262 132.79638092 55.23309265 131.49786377 55.2243042 C130.10876452 55.22500316 128.71966537 55.22592618 127.33056641 55.22705078 C125.86174681 55.2210638 124.39293037 55.21425786 122.92411804 55.20669556 C118.94065035 55.18904763 114.95726862 55.18434075 110.97376561 55.18306398 C108.48398589 55.18164138 105.99422796 55.17736976 103.50445366 55.17206955 C94.81561777 55.15357474 86.1268432 55.14539843 77.43798828 55.14697266 C69.34279347 55.14817459 61.24786506 55.12706088 53.15273768 55.09548533 C46.19802315 55.06932609 39.24339568 55.05860518 32.28863233 55.05988348 C28.1368103 55.06039313 23.98522518 55.05470816 19.83345222 55.03352737 C15.92878775 55.01415024 12.02458637 55.01401658 8.11990547 55.02856064 C6.68885115 55.03065037 5.25776787 55.02593793 3.82676315 55.01383972 C-4.42551472 54.65111461 -4.42551472 54.65111461 -12.07569885 57.17294312 C-17.02399304 62.10617991 -18.87667782 65.61649541 -18.96960449 72.5213623 C-18.96150757 73.42229614 -18.95341064 74.32322998 -18.94506836 75.25146484 C-18.95207764 76.21484772 -18.95908691 77.17823059 -18.96630859 78.17080688 C-18.98387285 81.34658883 -18.97226917 84.52147504 -18.95874023 87.69726562 C-18.96143603 89.91155162 -18.96531918 92.12583646 -18.97033691 94.34011841 C-18.97623023 98.97865073 -18.96767572 103.61687466 -18.94897461 108.25537109 C-18.92621219 114.18925032 -18.93929252 120.12240475 -18.96326447 126.05625725 C-18.9777495 130.62889013 -18.97310352 135.20135249 -18.9627533 139.77399063 C-18.96009212 141.96117362 -18.96333426 144.14837228 -18.97267151 146.33553696 C-18.98287839 149.39907294 -18.96727629 152.46145207 -18.94506836 155.52490234 C-18.95316528 156.42178772 -18.96126221 157.3186731 -18.96960449 158.24273682 C-18.8934368 163.94042029 -18.06076863 168.94813852 -14.42749023 173.51757812 C-10.62516307 176.38907045 -7.85593452 176.89367991 -3.14077759 176.89852905 C-1.87348312 176.90698853 -0.60618866 176.915448 0.69950867 176.92416382 C2.09646736 176.91833135 3.49342477 176.91218687 4.89038086 176.90576172 C6.3674305 176.90982864 7.8444771 176.9151712 9.32151794 176.92169189 C13.32783843 176.93535943 17.33392694 176.9300686 21.34025145 176.92055464 C25.53703143 176.91295226 29.73379173 176.92000552 33.93057251 176.92471313 C40.98019978 176.93017021 48.02973275 176.92298161 55.0793457 176.90869141 C63.22106541 176.89237762 71.36255957 176.89764429 79.50427377 176.91417062 C86.50062402 176.927802 93.49690651 176.92969671 100.49326575 176.92185462 C104.66909518 176.91718554 108.84481876 176.91653188 113.02064133 176.92646408 C116.94906939 176.93515509 120.87720801 176.92907311 124.80560493 176.91178131 C126.24429024 176.90782728 127.68300006 176.90893192 129.12167549 176.91556931 C139.29645806 177.10260949 139.29645806 177.10260949 148.57250977 173.51757812 C150.9141382 170.16124404 151.67649679 167.31954215 152.07250977 163.33007812 C152.57250977 159.51757812 152.57250977 159.51757812 153.80531311 157.80355835 C156.11052511 156.12606703 157.50972618 156.13734697 160.34765625 156.12939453 C161.31553574 156.11993805 162.28341522 156.11048157 163.28062439 156.10073853 C164.84629906 156.10984756 164.84629906 156.10984756 166.44360352 156.11914062 C168.05441551 156.11483536 168.05441551 156.11483536 169.69776917 156.11044312 C171.96990485 156.10840071 174.24205805 156.11394284 176.51416016 156.12646484 C179.99299478 156.1424997 183.47066476 156.12662951 186.94946289 156.10742188 C189.15584567 156.10940458 191.36222772 156.11324882 193.56860352 156.11914062 C194.6103624 156.11306793 195.65212128 156.10699524 196.72544861 156.10073853 C198.18199608 156.11492325 198.18199608 156.11492325 199.66796875 156.12939453 C200.94679176 156.1329747 200.94679176 156.1329747 202.25144958 156.1366272 C205.08795396 156.60217694 206.47816294 157.58080831 208.57250977 159.51757812 C209.05834961 161.41186523 209.05834961 161.41186523 209.03344727 163.54492188 C209.03119141 164.33125 209.02893555 165.11757813 209.02661133 165.92773438 C209.00050781 166.76175781 208.9744043 167.59578125 208.94750977 168.45507812 C208.93171875 169.31101562 208.91592773 170.16695312 208.8996582 171.04882812 C208.46664528 187.22277576 204.64969055 203.11417945 193.32250977 215.26757812 C178.18453727 229.31482335 157.53604518 230.83126716 137.88696289 230.77636719 C136.23965806 230.77908311 134.59235445 230.78264739 132.9450531 230.7869873 C128.50498619 230.79604213 124.06501307 230.79259578 119.62494469 230.78622913 C114.95809061 230.78113314 110.29124407 230.78587053 105.62438965 230.78900146 C97.7901873 230.79263068 89.95602277 230.78786951 82.12182617 230.77832031 C73.08999173 230.76743779 64.05824761 230.77096411 55.02641535 230.78197312 C47.24430145 230.79107585 39.46221461 230.79231672 31.6800971 230.78709579 C27.04424912 230.78399246 22.40844346 230.78352139 17.77259827 230.79016876 C13.41239803 230.79598521 9.05231321 230.79186742 4.69212532 230.78038025 C3.10072584 230.7777565 1.5093165 230.77845918 -0.08207893 230.78290558 C-22.68670445 230.84019607 -43.31267203 225.89253386 -60.17749023 209.89257812 C-71.83855364 197.58367786 -75.57949869 184.25929804 -75.57275391 167.7199707 C-75.57611252 166.53707458 -75.57947113 165.35417847 -75.58293152 164.13543701 C-75.5907871 160.90167572 -75.59410819 157.66795304 -75.5947473 154.43418336 C-75.59546012 152.40887 -75.59759888 150.38356328 -75.60024452 148.35825157 C-75.60948782 141.27813671 -75.6135809 134.19804062 -75.61279297 127.11791992 C-75.61219324 120.54238023 -75.622727 113.96692286 -75.63853663 107.39140397 C-75.65166395 101.72745978 -75.65697466 96.06354231 -75.65633756 90.39958304 C-75.65608399 87.02513111 -75.65885632 83.65075232 -75.66951561 80.27631569 C-75.67936347 76.50486139 -75.6764182 72.7336162 -75.67041016 68.9621582 C-75.67602966 67.86099167 -75.68164917 66.75982513 -75.68743896 65.62528992 C-75.6127608 47.08448609 -69.78624573 32.41120814 -57.11499023 18.76757812 C-41.42565856 3.86449997 -20.81472381 -0.11518588 0 0 Z " fill="#FDFEFE" transform="translate(543.427490234375,289.482421875)"/>
<path d="M0 0 C2.07382202 -0.38768005 2.07382202 -0.38768005 4.66162109 -0.40405273 C6.11355362 -0.42307899 6.11355362 -0.42307899 7.59481812 -0.44248962 C8.64376251 -0.43955399 9.69270691 -0.43661835 10.7734375 -0.43359375 C11.84872711 -0.4388356 12.92401672 -0.44407745 14.03189087 -0.44947815 C16.30998876 -0.45591089 18.58811982 -0.45454526 20.86621094 -0.44604492 C24.35411828 -0.43755085 27.84038031 -0.46625497 31.328125 -0.49804688 C33.53906201 -0.49965929 35.75000192 -0.49908058 37.9609375 -0.49609375 C39.00583344 -0.50732773 40.05072937 -0.51856171 41.12728882 -0.53013611 C42.58867783 -0.51606468 42.58867783 -0.51606468 44.07958984 -0.50170898 C44.93515472 -0.50154282 45.7907196 -0.50137665 46.67221069 -0.50120544 C50.01872248 0.21934513 51.07016569 1.15876018 53 4 C53.58382357 7.04253493 53.54321504 10.03690675 53.51416016 13.12719727 C53.52128525 14.0495517 53.52841034 14.97190613 53.53575134 15.92221069 C53.55504818 18.97049309 53.54675046 22.01808296 53.5390625 25.06640625 C53.54896529 27.18343626 53.56090494 29.30045763 53.57479858 31.41746521 C53.60719494 36.99107524 53.6175562 42.56448867 53.62164307 48.13818359 C53.63039275 57.06349813 53.66579847 65.98865094 53.7138176 74.91383171 C53.72643729 78.03543443 53.72564177 81.15683448 53.72354126 84.27845764 C53.73011976 86.18637246 53.73712566 88.09428586 53.74462891 90.00219727 C53.73844292 91.30907249 53.73844292 91.30907249 53.73213196 92.64234924 C53.75718482 97.61672143 53.75718482 97.61672143 56 102 C59.06499198 102.45874293 59.06499198 102.45874293 62.75010681 102.38095093 C63.45206997 102.3856309 64.15403313 102.39031087 64.8772679 102.39513266 C67.24120326 102.40714647 69.60456569 102.39760094 71.96850586 102.38818359 C73.6584965 102.39224651 75.34848449 102.39758681 77.03846741 102.40411377 C81.63764313 102.41782756 86.23661769 102.41247177 90.83579707 102.40297651 C95.64172214 102.39539965 100.44762958 102.40242013 105.2535553 102.40713501 C113.32653914 102.41259886 121.39944075 102.40538502 129.47241211 102.39111328 C138.81326547 102.37479108 148.15392236 102.38006961 157.49477094 102.3965925 C165.50500007 102.41019605 173.51516996 102.4121324 181.5254069 102.40427649 C186.31371791 102.39959303 191.10193651 102.39899343 195.89024162 102.40888596 C200.39232666 102.41753673 204.89415789 102.41156842 209.39621544 102.39420319 C211.05104907 102.39022797 212.70590398 102.39139001 214.36072922 102.39799118 C216.6150801 102.40615637 218.86861128 102.39594696 221.12290955 102.38095093 C222.38593368 102.37981985 223.64895781 102.37868877 224.95025539 102.37752342 C227.96329832 102.25104838 227.96329832 102.25104838 229.86731815 100.66369057 C232.6631188 96.55720013 232.15183845 92.03133382 232.15771484 87.27758789 C232.16279556 86.38624649 232.16787628 85.49490509 232.17311096 84.57655334 C232.18381447 82.6400609 232.19243473 80.70355608 232.19923019 78.76704597 C232.21101159 75.7033909 232.2304616 72.63987726 232.25234985 69.57627869 C232.3139984 60.86543466 232.36805582 52.15460565 232.40136719 43.44360352 C232.42228712 38.11674628 232.45756689 32.7901477 232.50212479 27.46343803 C232.51630425 25.43207273 232.5250116 23.40066167 232.52817917 21.36924934 C232.53307611 18.52982545 232.5562019 15.69109095 232.58349609 12.85180664 C232.57898689 11.59004608 232.57898689 11.59004608 232.5743866 10.30279541 C232.62131603 7.02299669 232.77951813 4.45048384 234.23332214 1.48010254 C236.50511698 -0.42318124 237.73614296 -0.51154229 240.68334961 -0.53344727 C242.10513771 -0.55720177 242.10513771 -0.55720177 243.5556488 -0.58143616 C245.0885128 -0.57399635 245.0885128 -0.57399635 246.65234375 -0.56640625 C248.22986168 -0.57570412 248.22986168 -0.57570412 249.83924866 -0.58518982 C252.06429111 -0.59229654 254.28938664 -0.58909921 256.5144043 -0.57641602 C259.92140552 -0.56256543 263.32565345 -0.59659248 266.73242188 -0.63476562 C268.89322984 -0.63571693 271.05404125 -0.63385741 273.21484375 -0.62890625 C274.7446714 -0.64879356 274.7446714 -0.64879356 276.30540466 -0.66908264 C277.25641556 -0.65654953 278.20742645 -0.64401642 279.18725586 -0.63110352 C280.02203964 -0.63014175 280.85682343 -0.62917999 281.71690369 -0.62818909 C285.18847988 0.32700771 286.10424775 1.97065525 288 5 C288.57802718 7.97757476 288.54012453 10.90067817 288.50793457 13.92640686 C288.51729451 15.27615393 288.51729451 15.27615393 288.52684355 16.65316862 C288.54280061 19.66886644 288.53015859 22.68375904 288.51757812 25.69946289 C288.52299799 27.86117525 288.53011988 30.02288392 288.53881836 32.18458557 C288.55706955 38.05636357 288.54997691 43.92786078 288.53730202 49.79964375 C288.52718503 55.93971474 288.53656396 62.07976146 288.54284668 68.21983337 C288.55012631 78.53047001 288.54052644 88.84099208 288.52148438 99.15161133 C288.49970936 111.07994324 288.50677045 123.00800174 288.52879 134.93632704 C288.54692804 145.17082439 288.54951028 155.40523933 288.53903532 165.63974756 C288.53279238 171.75547833 288.53198693 177.87108049 288.54518127 183.98680305 C288.55671607 189.73490546 288.5487572 195.48265448 288.52560425 201.23071861 C288.52030475 203.34309934 288.52185202 205.45550969 288.53065491 207.56787872 C288.54154469 210.44584941 288.52792627 213.32267929 288.50793457 216.20057678 C288.5213189 217.46199677 288.5213189 217.46199677 288.53497362 218.7489 C288.48550133 222.40669356 288.33852834 224.54938811 286.1081543 227.51821804 C283.62045628 229.26677414 282.31490554 229.50577139 279.29492188 229.51757812 C278.36715942 229.53018677 277.43939697 229.54279541 276.48352051 229.55578613 C275.48864624 229.54768921 274.49377197 229.53959229 273.46875 229.53125 C272.44068237 229.5350769 271.41261475 229.53890381 270.35339355 229.54284668 C268.18138652 229.54556674 266.00934677 229.53819906 263.83740234 229.52148438 C260.51195271 229.50007695 257.18866365 229.52128378 253.86328125 229.546875 C251.7525994 229.54423174 249.64191889 229.53910681 247.53125 229.53125 C246.53637573 229.53934692 245.54150146 229.54744385 244.51647949 229.55578613 C243.12483582 229.53687317 243.12483582 229.53687317 241.70507812 229.51757812 C240.89107544 229.51439575 240.07707275 229.51121338 239.23840332 229.50793457 C236.07043453 228.78906463 234.91390965 227.60130198 233 225 C232.5146637 222.12294006 232.5146637 222.12294006 232.53344727 218.75024414 C232.5298671 217.4853566 232.52628693 216.22046906 232.52259827 214.91725159 C232.53354365 213.90750873 232.53354365 213.90750873 232.54471016 212.87736702 C232.56664315 210.76231105 232.5628666 208.64868163 232.55223083 206.53355408 C232.53058625 201.28162934 232.54791095 196.03002333 232.57373047 190.77813721 C232.59515514 186.33787439 232.59704852 181.89852819 232.57081413 177.45828056 C232.56647134 175.37882377 232.59107412 173.30097067 232.61634827 171.22169495 C232.60961594 169.95365524 232.60288361 168.68561554 232.59594727 167.37915039 C232.60135025 166.26536514 232.60675323 165.1515799 232.61231995 164.00404358 C231.7817818 159.92942084 230.20746611 158.59909029 227 156 C223.67400186 155.25797359 223.67400186 155.25797359 219.96505737 155.37854004 C219.26869805 155.37215122 218.57233872 155.3657624 217.85487759 155.35917997 C215.52749962 155.34395034 213.20182969 155.36437499 210.87451172 155.38476562 C209.20378048 155.38126384 207.53305258 155.37560462 205.86233521 155.36795044 C201.32929503 155.35370307 196.79686147 155.37076196 192.2638793 155.39423561 C187.52204198 155.41433668 182.78023004 155.40846556 178.0383606 155.40612793 C170.07739244 155.4061815 162.11666166 155.42593946 154.15576172 155.45800781 C144.94604733 155.49492584 135.73664361 155.5036799 126.52686489 155.4967103 C117.67149392 155.49041069 108.81622971 155.5011479 99.96088028 155.52067566 C96.18979499 155.52885972 92.41876418 155.53155737 88.64767075 155.52998352 C84.21035615 155.52910617 79.77333796 155.54328007 75.33610153 155.56921005 C73.70546404 155.57638664 72.07479504 155.57844832 70.4441452 155.57509232 C68.22276445 155.57139179 66.00225564 155.58607368 63.78097534 155.60559082 C62.53659636 155.60931953 61.29221737 155.61304825 60.01012993 155.61688995 C57.02701646 155.75614622 57.02701646 155.75614622 55.10026836 157.34955692 C53.38308413 159.92539653 53.61304467 162.17925553 53.59936523 165.24389648 C53.58602646 166.532108 53.57268768 167.82031952 53.5589447 169.14756775 C53.55880948 170.55540975 53.55869295 171.96325175 53.55859375 173.37109375 C53.54682211 174.81455325 53.53345841 176.25800056 53.51856995 177.70143127 C53.48236043 181.50240137 53.46217725 185.30326358 53.44702148 189.10437012 C53.42220692 195.18489225 53.38250095 201.26517576 53.32512093 207.34547615 C53.30880809 209.4682028 53.30501548 211.59070414 53.30210876 213.71348572 C53.29192215 215.0048494 53.28173553 216.29621307 53.27124023 217.62670898 C53.26696518 218.76349594 53.26269012 219.9002829 53.25828552 221.07151794 C53.00436274 223.95053455 52.59057863 225.61112029 51 228 C48.62689434 229.18655283 47.15400279 229.13912339 44.50610352 229.16113281 C43.10939171 229.17554413 43.10939171 229.17554413 41.6844635 229.19024658 C40.67612961 229.19449646 39.66779572 229.19874634 38.62890625 229.203125 C37.59563705 229.20882507 36.56236786 229.21452515 35.49778748 229.22039795 C33.30965196 229.22985453 31.12150217 229.23638454 28.93334961 229.24023438 C25.57966413 229.24995027 22.22658869 229.28097203 18.87304688 229.3125 C16.75000365 229.31902884 14.62695603 229.32427978 12.50390625 229.328125 C10.99444176 229.3466452 10.99444176 229.3466452 9.45448303 229.36553955 C8.52018967 229.36253845 7.5858963 229.35953735 6.62329102 229.35644531 C5.38990746 229.36191376 5.38990746 229.36191376 4.13160706 229.36749268 C1.48939693 228.91197116 0.64631481 228.07184408 -1 226 C-2.65097983 222.69804035 -2.14030988 219.01933684 -2.13371277 215.3896637 C-2.1371111 214.03657786 -2.1371111 214.03657786 -2.14057809 212.65615696 C-2.14693879 209.61524093 -2.14608741 206.57436923 -2.14526367 203.53344727 C-2.14825386 201.36070701 -2.15165606 199.18796729 -2.15544128 197.01522827 C-2.16429942 191.10004183 -2.16662015 185.18486983 -2.16725707 179.2696774 C-2.16820463 174.33896701 -2.17188114 169.40826001 -2.17542917 164.47755092 C-2.1835805 152.84920864 -2.18601277 141.22087411 -2.18530273 129.5925293 C-2.18470164 117.57967528 -2.19525814 105.56687237 -2.2110464 93.55402905 C-2.22410196 83.25508651 -2.22948747 72.95615866 -2.22884732 62.65720791 C-2.22859177 56.49957545 -2.23147469 50.34198284 -2.24202538 44.1843586 C-2.25167312 38.39536565 -2.25180848 32.60645092 -2.24450874 26.81745529 C-2.24345877 24.68852436 -2.24585004 22.55958865 -2.2518692 20.43066597 C-2.259534 17.53279056 -2.25498111 14.63518903 -2.24723816 11.73731995 C-2.25238172 10.88752314 -2.25752529 10.03772633 -2.26282471 9.1621781 C-2.23963167 5.25579969 -2.21695584 3.32543376 0 0 Z " fill="#FDFEFE" transform="translate(66,291)"/>
<path d="M0 0 C0.94785873 -0.01591187 1.89571747 -0.03182373 2.87229919 -0.04821777 C3.89420853 -0.04841919 4.91611786 -0.04862061 5.96899414 -0.04882812 C7.02067276 -0.05644165 8.07235138 -0.06405518 9.15589905 -0.07189941 C11.38092676 -0.08270898 13.60600526 -0.08555006 15.83105469 -0.08105469 C19.23792046 -0.08008276 22.64253207 -0.12168849 26.04907227 -0.16601562 C28.20987485 -0.17122274 30.37068528 -0.17391082 32.53149414 -0.17382812 C34.06132179 -0.19842102 34.06132179 -0.19842102 35.62205505 -0.22351074 C36.57306595 -0.21420532 37.52407684 -0.2048999 38.50390625 -0.1953125 C39.75608192 -0.19839417 39.75608192 -0.19839417 41.03355408 -0.20153809 C44.50872303 0.74440465 45.42132163 2.39015735 47.31665039 5.41992188 C47.89288865 8.39780871 47.8525057 11.32067807 47.81785583 14.34632874 C47.82615743 15.69607581 47.82615743 15.69607581 47.83462673 17.07309049 C47.84824193 20.08880271 47.83325919 23.10368858 47.81835938 26.11938477 C47.8221422 28.28109591 47.82764194 30.44280462 47.83473206 32.60450745 C47.84870776 38.47629635 47.83750224 44.34779293 47.82102084 50.21956563 C47.80718493 56.35963126 47.81362869 62.49967967 47.81715393 68.63975525 C47.819857 78.95039591 47.80637136 89.26092022 47.78320312 99.5715332 C47.75658581 111.49983009 47.75484821 123.4279325 47.76659149 135.35624892 C47.77736197 146.82254598 47.77118837 158.28877255 47.75703621 169.75506401 C47.7512708 174.63896789 47.75136344 179.52282028 47.75610161 184.40672493 C47.76086585 190.15478153 47.75079251 195.90262453 47.72914696 201.65064049 C47.72357166 203.76301986 47.72312057 205.87541973 47.72809982 207.9878006 C47.73403376 210.86560547 47.72158381 213.74275309 47.70433044 216.62049866 C47.71034049 217.46144532 47.71635054 218.30239198 47.7225427 219.16882187 C47.68583163 222.5234187 47.56532861 224.9692287 45.92717743 227.93813992 C43.77509093 229.91818922 42.53493994 229.92642778 39.63330078 229.9375 C38.68544205 229.95010864 37.73758331 229.96271729 36.76100159 229.97570801 C35.73909225 229.96761108 34.71718292 229.95951416 33.66430664 229.95117188 C32.61262802 229.95499878 31.5609494 229.95882568 30.47740173 229.96276855 C28.25234013 229.96549162 26.02724672 229.95810299 23.80224609 229.94140625 C20.39551341 229.92002457 16.99089493 229.94118469 13.58422852 229.96679688 C11.42341656 229.96415325 9.26260593 229.95902756 7.10180664 229.95117188 C6.08192154 229.9592688 5.06203644 229.96736572 4.01124573 229.97570801 C3.06023483 229.96309937 2.10922394 229.95049072 1.12939453 229.9375 C-0.12278114 229.93272644 -0.12278114 229.93272644 -1.4002533 229.92785645 C-4.67415535 229.19949119 -5.66858087 228.11228503 -7.68334961 225.41992188 C-8.0739206 222.33725522 -8.21938031 219.61332773 -8.18455505 216.53111267 C-8.19285665 215.16933823 -8.19285665 215.16933823 -8.20132595 213.7800532 C-8.21496332 210.73126601 -8.19994641 207.68329308 -8.18505859 204.63452148 C-8.18884061 202.45163118 -8.19433969 200.26874327 -8.20143127 198.08586121 C-8.21541749 192.15209994 -8.20419412 186.21862759 -8.18772006 180.28488231 C-8.17389382 174.08294989 -8.1803268 167.88103466 -8.18385315 161.67909241 C-8.18673029 150.596575 -8.17016884 139.51418408 -8.14543242 128.43169726 C-8.12346937 118.37947611 -8.11955374 108.32738534 -8.12939453 98.27514648 C-8.14197734 85.36113226 -8.13951971 72.44721554 -8.12373543 59.53320503 C-8.11796676 54.59823525 -8.11806521 49.66331642 -8.12280083 44.72834587 C-8.12756158 38.92121055 -8.11750632 33.11428688 -8.09584618 27.30719185 C-8.09026609 25.17181741 -8.08982414 23.03642268 -8.09479904 20.90104675 C-8.10072327 17.99437617 -8.08830192 15.088359 -8.07102966 12.18174744 C-8.08004473 10.90326216 -8.08004473 10.90326216 -8.08924192 9.5989489 C-8.02671296 3.84372417 -8.02671296 3.84372417 -6.29433686 1.70550829 C-4.12981054 -0.02180869 -2.7509789 0.02777139 0 0 Z " fill="#FDFDFE" transform="translate(393.683349609375,290.580078125)"/>
</svg>
